<svg width="512" height="512" viewBox="0 0 108 108" fill="none" xmlns="http://www.w3.org/2000/svg">
  <defs>
    <linearGradient id="gradient-bg" x1="0%" y1="0%" x2="100%" y2="100%">
      <stop offset="0%" stop-color="#6366f1" />
      <stop offset="50%" stop-color="#8b5cf6" />
      <stop offset="100%" stop-color="#a855f7" />
    </linearGradient>
  </defs>

  <!-- Background rounded square -->
  <rect x="8" y="8" width="92" height="92" rx="20" fill="url(#gradient-bg)" />

  <!-- Letter P - stem (filled rectangle with rounded ends) -->
  <rect x="34" y="30" width="8" height="48" rx="4" fill="white" />

  <!-- Letter P - top bar -->
  <rect x="34" y="26" width="28" height="8" rx="4" fill="white" />

  <!-- Letter P - bowl (outer) -->
  <path
    d="M58,26 C72,26 78,34 78,45 C78,56 72,64 58,64 L34,64 L34,56 L58,56 C66,56 70,52 70,45 C70,38 66,34 58,34 L34,34 L34,26 Z"
    fill="white" />

  <!-- Letter P - connector bar -->
  <rect x="34" y="56" width="8" height="8" fill="white" />

  <!-- AI sparkle dots -->
  <circle cx="83" cy="33" r="3.5" fill="white" />
  <circle cx="87" cy="42" r="2.5" fill="white" opacity="0.85" />
  <circle cx="83" cy="51" r="2.5" fill="white" opacity="0.65" />
</svg>
