<svg width="432" height="432" viewBox="0 0 108 108" fill="none" xmlns="http://www.w3.org/2000/svg">
  <!-- Adaptive icon foreground: 108dp canvas, 72dp safe zone centered (18dp inset) -->

  <!-- Letter P - stem -->
  <rect x="34" y="30" width="8" height="48" rx="4" fill="white" />

  <!-- Letter P - top bar -->
  <rect x="34" y="26" width="28" height="8" rx="4" fill="white" />

  <!-- Letter P - bowl -->
  <path
    d="M58,26 C72,26 78,34 78,45 C78,56 72,64 58,64 L34,64 L34,56 L58,56 C66,56 70,52 70,45 C70,38 66,34 58,34 L34,34 L34,26 Z"
    fill="white" />

  <!-- Letter P - connector -->
  <rect x="34" y="56" width="8" height="8" fill="white" />

  <!-- Sparkle dot large -->
  <circle cx="83" cy="33" r="3.5" fill="white" />

  <!-- Sparkle dot medium -->
  <circle cx="87" cy="42" r="2.5" fill="white" opacity="0.85" />

  <!-- Sparkle dot small -->
  <circle cx="83" cy="51" r="2.5" fill="white" opacity="0.65" />
</svg>
