<svg width="512" height="512" viewBox="0 0 100 100" fill="none" xmlns="http://www.w3.org/2000/svg">
  <defs>
    <linearGradient id="gradient-minimal" x1="0%" y1="0%" x2="100%" y2="100%">
      <stop offset="0%" stop-color="#6366f1" />
      <stop offset="50%" stop-color="#8b5cf6" />
      <stop offset="100%" stop-color="#a855f7" />
    </linearGradient>
  </defs>

  <!-- Letter P - stem -->
  <rect x="24" y="20" width="12" height="60" rx="6" fill="url(#gradient-minimal)" />

  <!-- Letter P - bowl -->
  <path
    d="M54,14 C72,14 80,24 80,38 C80,52 72,62 54,62 L24,62 L24,52 L54,52 C64,52 68,48 68,38 C68,28 64,24 54,24 L24,24 L24,14 Z"
    fill="url(#gradient-minimal)" />

  <!-- Letter P - connector -->
  <rect x="24" y="52" width="12" height="12" fill="url(#gradient-minimal)" />

  <!-- AI spark dots -->
  <circle cx="84" cy="22" r="5" fill="#a855f7" />
  <circle cx="90" cy="33" r="3.5" fill="#8b5cf6" />
  <circle cx="84" cy="44" r="3.5" fill="#6366f1" />
</svg>
